<?xml version="1.0" encoding="UTF-8"?>
<!DOCTYPE svg PUBLIC "-//W3C//DTD SVG 1.1//EN" "http://www.w3.org/Graphics/SVG/1.1/DTD/svg11.dtd">
<svg xmlns="http://www.w3.org/2000/svg" version="1.1" width="1440px" height="733px" style="shape-rendering:geometricPrecision; text-rendering:geometricPrecision; image-rendering:optimizeQuality; fill-rule:evenodd; clip-rule:evenodd" xmlns:xlink="http://www.w3.org/1999/xlink">
<g><path style="opacity:1" fill="#052035" d="M -0.5,-0.5 C 479.5,-0.5 959.5,-0.5 1439.5,-0.5C 1439.5,213.833 1439.5,428.167 1439.5,642.5C 1436.62,644.105 1433.62,645.439 1430.5,646.5C 1428.45,646.402 1426.78,647.069 1425.5,648.5C 1410.7,656.228 1395.37,662.895 1379.5,668.5C 1377.45,668.402 1375.78,669.069 1374.5,670.5C 1286.29,706.47 1194.62,727.137 1099.5,732.5C 1077.83,732.5 1056.17,732.5 1034.5,732.5C 987.815,727.53 941.815,718.363 896.5,705C 859.909,694.136 823.576,682.47 787.5,670C 701.427,637.753 614.761,607.086 527.5,578C 484.691,564.048 441.024,553.714 396.5,547C 300.093,536.486 206.76,549.153 116.5,585C 99.6957,591.904 83.029,599.07 66.5,606.5C 64.4471,606.402 62.7804,607.069 61.5,608.5C 55.8177,612.008 49.8177,615.008 43.5,617.5C 41.326,617.75 39.6594,618.75 38.5,620.5C 34.8178,623.008 30.8178,625.008 26.5,626.5C 24.9731,626.427 23.9731,627.094 23.5,628.5C 17.8302,632.337 11.8302,635.67 5.5,638.5C 3.97306,638.427 2.97306,639.094 2.5,640.5C 1.70951,641.401 0.709515,642.068 -0.5,642.5C -0.5,428.167 -0.5,213.833 -0.5,-0.5 Z"/></g>
<g><path style="opacity:0.535" fill="#3933f2" d="M 66.5,606.5 C 65.2196,607.931 63.5529,608.598 61.5,608.5C 62.7804,607.069 64.4471,606.402 66.5,606.5 Z"/></g>
<g><path style="opacity:0.012" fill="#3e3be7" d="M 43.5,617.5 C 42.3406,619.25 40.674,620.25 38.5,620.5C 39.6594,618.75 41.326,617.75 43.5,617.5 Z"/></g>
<g><path style="opacity:0.012" fill="#4040e1" d="M 26.5,626.5 C 26.0269,627.906 25.0269,628.573 23.5,628.5C 23.9731,627.094 24.9731,626.427 26.5,626.5 Z"/></g>
<g><path style="opacity:0.004" fill="#2d26f7" d="M 5.5,638.5 C 5.02694,639.906 4.02694,640.573 2.5,640.5C 2.97306,639.094 3.97306,638.427 5.5,638.5 Z"/></g>
<g><path style="opacity:0.535" fill="#3934f4" d="M 1430.5,646.5 C 1429.22,647.931 1427.55,648.598 1425.5,648.5C 1426.78,647.069 1428.45,646.402 1430.5,646.5 Z"/></g>
<g><path style="opacity:0.467" fill="#3431ec" d="M 1379.5,668.5 C 1378.22,669.931 1376.55,670.598 1374.5,670.5C 1375.78,669.069 1377.45,668.402 1379.5,668.5 Z"/></g>
</svg>
